<mxfile host="app.diagrams.net" modified="2021-04-23T20:46:30.240Z" agent="5.0 (Windows NT 10.0; Win64; x64) AppleWebKit/537.36 (KHTML, like Gecko) Chrome/90.0.4430.85 Safari/537.36" etag="LeJxQ1gBENz4Z0LQurfA" version="14.6.6" type="github">
  <diagram id="3WkeCDNO4JOJ7i5teq0Y" name="Page-1">
    <mxGraphModel dx="2591" dy="739" grid="1" gridSize="10" guides="1" tooltips="1" connect="1" arrows="1" fold="1" page="1" pageScale="1" pageWidth="1169" pageHeight="827" math="0" shadow="0">
      <root>
        <mxCell id="0" />
        <mxCell id="1" parent="0" />
        <mxCell id="vHGJKrFZ5tcl8I4FfaOA-48" value="" style="rounded=0;whiteSpace=wrap;html=1;" parent="1" vertex="1">
          <mxGeometry x="310" y="40" width="490" height="400" as="geometry" />
        </mxCell>
        <mxCell id="vHGJKrFZ5tcl8I4FfaOA-3" value="" style="whiteSpace=wrap;html=1;" parent="1" vertex="1">
          <mxGeometry x="35" y="70" width="245" height="370" as="geometry" />
        </mxCell>
        <mxCell id="vHGJKrFZ5tcl8I4FfaOA-1" value="" style="rounded=1;whiteSpace=wrap;html=1;" parent="1" vertex="1">
          <mxGeometry x="45" y="100" width="200" height="300" as="geometry" />
        </mxCell>
        <mxCell id="vHGJKrFZ5tcl8I4FfaOA-17" value="" style="rounded=1;whiteSpace=wrap;html=1;" parent="1" vertex="1">
          <mxGeometry x="65" y="187.5" width="160" height="185" as="geometry" />
        </mxCell>
        <mxCell id="vHGJKrFZ5tcl8I4FfaOA-2" value="" style="rounded=1;whiteSpace=wrap;html=1;" parent="1" vertex="1">
          <mxGeometry x="320" y="170" width="150" height="90" as="geometry" />
        </mxCell>
        <mxCell id="vHGJKrFZ5tcl8I4FfaOA-4" value="new CronModule()" style="text;html=1;strokeColor=none;fillColor=none;align=center;verticalAlign=middle;whiteSpace=wrap;rounded=0;" parent="1" vertex="1">
          <mxGeometry x="80" y="70" width="120" height="20" as="geometry" />
        </mxCell>
        <mxCell id="vHGJKrFZ5tcl8I4FfaOA-6" value="worker_queue" style="text;html=1;strokeColor=none;fillColor=none;align=center;verticalAlign=middle;whiteSpace=wrap;rounded=0;" parent="1" vertex="1">
          <mxGeometry x="300" y="149" width="180" height="20" as="geometry" />
        </mxCell>
        <mxCell id="vHGJKrFZ5tcl8I4FfaOA-7" value="" style="rounded=1;whiteSpace=wrap;html=1;" parent="1" vertex="1">
          <mxGeometry x="325" y="70" width="150" height="50" as="geometry" />
        </mxCell>
        <mxCell id="vHGJKrFZ5tcl8I4FfaOA-8" value="CronModule" style="text;html=1;strokeColor=none;fillColor=none;align=center;verticalAlign=middle;whiteSpace=wrap;rounded=0;" parent="1" vertex="1">
          <mxGeometry x="50" y="40" width="180" height="20" as="geometry" />
        </mxCell>
        <mxCell id="vHGJKrFZ5tcl8I4FfaOA-9" value="" style="rounded=1;whiteSpace=wrap;html=1;" parent="1" vertex="1">
          <mxGeometry x="315" y="300" width="150" height="50" as="geometry" />
        </mxCell>
        <mxCell id="vHGJKrFZ5tcl8I4FfaOA-10" value="worker_branch_1 - worker_branch_n" style="text;html=1;strokeColor=none;fillColor=none;align=center;verticalAlign=middle;whiteSpace=wrap;rounded=0;" parent="1" vertex="1">
          <mxGeometry x="295" y="270" width="180" height="20" as="geometry" />
        </mxCell>
        <mxCell id="vHGJKrFZ5tcl8I4FfaOA-11" value="" style="rounded=1;whiteSpace=wrap;html=1;" parent="1" vertex="1">
          <mxGeometry x="325" y="310" width="150" height="50" as="geometry" />
        </mxCell>
        <mxCell id="vHGJKrFZ5tcl8I4FfaOA-12" value="" style="rounded=1;whiteSpace=wrap;html=1;" parent="1" vertex="1">
          <mxGeometry x="335" y="320" width="150" height="50" as="geometry" />
        </mxCell>
        <mxCell id="vHGJKrFZ5tcl8I4FfaOA-13" value="" style="rounded=1;whiteSpace=wrap;html=1;" parent="1" vertex="1">
          <mxGeometry x="345" y="330" width="150" height="50" as="geometry" />
        </mxCell>
        <mxCell id="vHGJKrFZ5tcl8I4FfaOA-14" value="worker_mainJob" style="text;html=1;strokeColor=none;fillColor=none;align=center;verticalAlign=middle;whiteSpace=wrap;rounded=0;" parent="1" vertex="1">
          <mxGeometry x="305" y="50" width="180" height="20" as="geometry" />
        </mxCell>
        <mxCell id="vHGJKrFZ5tcl8I4FfaOA-15" value="CronAppWorker" style="text;html=1;strokeColor=none;fillColor=none;align=center;verticalAlign=middle;whiteSpace=wrap;rounded=0;" parent="1" vertex="1">
          <mxGeometry x="315" y="20" width="425" height="20" as="geometry" />
        </mxCell>
        <mxCell id="vHGJKrFZ5tcl8I4FfaOA-16" value="runJobs()" style="text;html=1;strokeColor=none;fillColor=none;align=center;verticalAlign=middle;whiteSpace=wrap;rounded=0;" parent="1" vertex="1">
          <mxGeometry x="85" y="162.5" width="95" height="25" as="geometry" />
        </mxCell>
        <mxCell id="vHGJKrFZ5tcl8I4FfaOA-20" value="" style="endArrow=classic;html=1;entryX=0;entryY=0.5;entryDx=0;entryDy=0;" parent="1" source="vHGJKrFZ5tcl8I4FfaOA-1" target="vHGJKrFZ5tcl8I4FfaOA-7" edge="1">
          <mxGeometry width="50" height="50" relative="1" as="geometry">
            <mxPoint x="140" y="180" as="sourcePoint" />
            <mxPoint x="190" y="130" as="targetPoint" />
          </mxGeometry>
        </mxCell>
        <mxCell id="vHGJKrFZ5tcl8I4FfaOA-21" value="" style="endArrow=classic;html=1;entryX=0;entryY=0.5;entryDx=0;entryDy=0;" parent="1" source="vHGJKrFZ5tcl8I4FfaOA-17" target="vHGJKrFZ5tcl8I4FfaOA-2" edge="1">
          <mxGeometry width="50" height="50" relative="1" as="geometry">
            <mxPoint x="220" y="260" as="sourcePoint" />
            <mxPoint x="270" y="210" as="targetPoint" />
          </mxGeometry>
        </mxCell>
        <mxCell id="vHGJKrFZ5tcl8I4FfaOA-22" value="" style="endArrow=classic;html=1;exitX=1;exitY=0.5;exitDx=0;exitDy=0;entryX=0;entryY=0.75;entryDx=0;entryDy=0;" parent="1" source="vHGJKrFZ5tcl8I4FfaOA-17" target="vHGJKrFZ5tcl8I4FfaOA-9" edge="1">
          <mxGeometry width="50" height="50" relative="1" as="geometry">
            <mxPoint x="390" y="180" as="sourcePoint" />
            <mxPoint x="440" y="130" as="targetPoint" />
          </mxGeometry>
        </mxCell>
        <mxCell id="vHGJKrFZ5tcl8I4FfaOA-23" value="" style="endArrow=classic;html=1;exitX=1;exitY=0.5;exitDx=0;exitDy=0;entryX=0;entryY=0.5;entryDx=0;entryDy=0;" parent="1" source="vHGJKrFZ5tcl8I4FfaOA-17" target="vHGJKrFZ5tcl8I4FfaOA-11" edge="1">
          <mxGeometry width="50" height="50" relative="1" as="geometry">
            <mxPoint x="230" y="225" as="sourcePoint" />
            <mxPoint x="325" y="335" as="targetPoint" />
          </mxGeometry>
        </mxCell>
        <mxCell id="vHGJKrFZ5tcl8I4FfaOA-24" value="" style="endArrow=classic;html=1;entryX=0;entryY=0.25;entryDx=0;entryDy=0;exitX=1;exitY=0.5;exitDx=0;exitDy=0;" parent="1" source="vHGJKrFZ5tcl8I4FfaOA-17" target="vHGJKrFZ5tcl8I4FfaOA-12" edge="1">
          <mxGeometry width="50" height="50" relative="1" as="geometry">
            <mxPoint x="220" y="220" as="sourcePoint" />
            <mxPoint x="335" y="345" as="targetPoint" />
          </mxGeometry>
        </mxCell>
        <mxCell id="vHGJKrFZ5tcl8I4FfaOA-25" value="" style="endArrow=classic;html=1;exitX=1;exitY=0.5;exitDx=0;exitDy=0;entryX=0;entryY=0;entryDx=0;entryDy=0;" parent="1" source="vHGJKrFZ5tcl8I4FfaOA-17" target="vHGJKrFZ5tcl8I4FfaOA-13" edge="1">
          <mxGeometry width="50" height="50" relative="1" as="geometry">
            <mxPoint x="220" y="220" as="sourcePoint" />
            <mxPoint x="340" y="333" as="targetPoint" />
          </mxGeometry>
        </mxCell>
        <mxCell id="vHGJKrFZ5tcl8I4FfaOA-26" value="startApp" style="text;html=1;strokeColor=none;fillColor=none;align=center;verticalAlign=middle;whiteSpace=wrap;rounded=0;" parent="1" vertex="1">
          <mxGeometry x="365" y="80" width="40" height="20" as="geometry" />
        </mxCell>
        <mxCell id="vHGJKrFZ5tcl8I4FfaOA-29" value="startApp" style="text;html=1;strokeColor=none;fillColor=none;align=center;verticalAlign=middle;whiteSpace=wrap;rounded=0;" parent="1" vertex="1">
          <mxGeometry x="360" y="187" width="40" height="20" as="geometry" />
        </mxCell>
        <mxCell id="vHGJKrFZ5tcl8I4FfaOA-30" value="run_cron_app_worker.php" style="text;html=1;strokeColor=none;fillColor=none;align=center;verticalAlign=middle;whiteSpace=wrap;rounded=0;" parent="1" vertex="1">
          <mxGeometry x="365" y="210" width="40" height="20" as="geometry" />
        </mxCell>
        <mxCell id="vHGJKrFZ5tcl8I4FfaOA-33" value="start_service.php" style="text;html=1;strokeColor=none;fillColor=none;align=center;verticalAlign=middle;whiteSpace=wrap;rounded=0;" parent="1" vertex="1">
          <mxGeometry x="-80" y="50" width="40" height="20" as="geometry" />
        </mxCell>
        <mxCell id="vHGJKrFZ5tcl8I4FfaOA-34" value="Loop" style="text;html=1;strokeColor=none;fillColor=none;align=center;verticalAlign=middle;whiteSpace=wrap;rounded=0;" parent="1" vertex="1">
          <mxGeometry x="112.5" y="220" width="40" height="20" as="geometry" />
        </mxCell>
        <mxCell id="vHGJKrFZ5tcl8I4FfaOA-36" value="restart if needed..." style="rounded=1;whiteSpace=wrap;html=1;" parent="1" vertex="1">
          <mxGeometry x="85" y="240" width="120" height="110" as="geometry" />
        </mxCell>
        <mxCell id="vHGJKrFZ5tcl8I4FfaOA-37" value="" style="endArrow=classic;html=1;entryX=-0.004;entryY=0.128;entryDx=0;entryDy=0;entryPerimeter=0;exitX=1;exitY=0.5;exitDx=0;exitDy=0;" parent="1" source="vHGJKrFZ5tcl8I4FfaOA-39" target="vHGJKrFZ5tcl8I4FfaOA-3" edge="1">
          <mxGeometry width="50" height="50" relative="1" as="geometry">
            <mxPoint x="-70" y="140" as="sourcePoint" />
            <mxPoint x="440" y="110" as="targetPoint" />
          </mxGeometry>
        </mxCell>
        <mxCell id="vHGJKrFZ5tcl8I4FfaOA-39" value="" style="rounded=1;whiteSpace=wrap;html=1;" parent="1" vertex="1">
          <mxGeometry x="-130" y="90" width="120" height="60" as="geometry" />
        </mxCell>
        <mxCell id="vHGJKrFZ5tcl8I4FfaOA-41" value="" style="rounded=1;whiteSpace=wrap;html=1;" parent="1" vertex="1">
          <mxGeometry x="550" y="90" width="220" height="310" as="geometry" />
        </mxCell>
        <mxCell id="vHGJKrFZ5tcl8I4FfaOA-42" value="" style="rounded=1;whiteSpace=wrap;html=1;" parent="1" vertex="1">
          <mxGeometry x="570" y="160" width="160" height="180" as="geometry" />
        </mxCell>
        <mxCell id="vHGJKrFZ5tcl8I4FfaOA-43" value="Loop" style="text;html=1;strokeColor=none;fillColor=none;align=center;verticalAlign=middle;whiteSpace=wrap;rounded=0;" parent="1" vertex="1">
          <mxGeometry x="640" y="129" width="40" height="20" as="geometry" />
        </mxCell>
        <mxCell id="vHGJKrFZ5tcl8I4FfaOA-44" value="run_cron_app_worker.php" style="text;html=1;strokeColor=none;fillColor=none;align=center;verticalAlign=middle;whiteSpace=wrap;rounded=0;" parent="1" vertex="1">
          <mxGeometry x="640" y="60" width="40" height="20" as="geometry" />
        </mxCell>
        <mxCell id="vHGJKrFZ5tcl8I4FfaOA-45" value="" style="endArrow=classic;html=1;entryX=-0.006;entryY=0.096;entryDx=0;entryDy=0;entryPerimeter=0;exitX=1.023;exitY=0.589;exitDx=0;exitDy=0;exitPerimeter=0;" parent="1" source="vHGJKrFZ5tcl8I4FfaOA-2" target="vHGJKrFZ5tcl8I4FfaOA-41" edge="1">
          <mxGeometry width="50" height="50" relative="1" as="geometry">
            <mxPoint x="390" y="360" as="sourcePoint" />
            <mxPoint x="440" y="310" as="targetPoint" />
          </mxGeometry>
        </mxCell>
        <mxCell id="vHGJKrFZ5tcl8I4FfaOA-46" value="runQueue oder&lt;br&gt;runCron" style="text;html=1;strokeColor=none;fillColor=none;align=center;verticalAlign=middle;whiteSpace=wrap;rounded=0;" parent="1" vertex="1">
          <mxGeometry x="630" y="180" width="40" height="20" as="geometry" />
        </mxCell>
        <mxCell id="xk0VU2B57EffYjzDep0H-1" value="CronController" style="text;html=1;strokeColor=none;fillColor=none;align=center;verticalAlign=middle;whiteSpace=wrap;rounded=0;" vertex="1" parent="1">
          <mxGeometry x="900" width="150" height="50" as="geometry" />
        </mxCell>
        <mxCell id="xk0VU2B57EffYjzDep0H-2" value="" style="whiteSpace=wrap;html=1;aspect=fixed;" vertex="1" parent="1">
          <mxGeometry x="820" y="40" width="400" height="400" as="geometry" />
        </mxCell>
        <mxCell id="xk0VU2B57EffYjzDep0H-3" value="executeQueueJob" style="rounded=1;whiteSpace=wrap;html=1;" vertex="1" parent="1">
          <mxGeometry x="845" y="70" width="120" height="60" as="geometry" />
        </mxCell>
        <mxCell id="xk0VU2B57EffYjzDep0H-4" value="executeCronJobs" style="rounded=1;whiteSpace=wrap;html=1;" vertex="1" parent="1">
          <mxGeometry x="845" y="170" width="120" height="60" as="geometry" />
        </mxCell>
        <mxCell id="xk0VU2B57EffYjzDep0H-5" value="dispatchEvent" style="rounded=1;whiteSpace=wrap;html=1;" vertex="1" parent="1">
          <mxGeometry x="1028" y="105" width="120" height="60" as="geometry" />
        </mxCell>
        <mxCell id="xk0VU2B57EffYjzDep0H-6" value="dispatchEvent" style="rounded=1;whiteSpace=wrap;html=1;" vertex="1" parent="1">
          <mxGeometry x="1038" y="115" width="120" height="60" as="geometry" />
        </mxCell>
        <mxCell id="xk0VU2B57EffYjzDep0H-7" value="dispatchEvent" style="rounded=1;whiteSpace=wrap;html=1;" vertex="1" parent="1">
          <mxGeometry x="1048" y="125" width="120" height="60" as="geometry" />
        </mxCell>
        <mxCell id="xk0VU2B57EffYjzDep0H-8" value="dispatchEvent" style="rounded=1;whiteSpace=wrap;html=1;" vertex="1" parent="1">
          <mxGeometry x="1058" y="135" width="120" height="60" as="geometry" />
        </mxCell>
        <mxCell id="xk0VU2B57EffYjzDep0H-9" value="dispatchEvent" style="rounded=1;whiteSpace=wrap;html=1;" vertex="1" parent="1">
          <mxGeometry x="1068" y="145" width="120" height="60" as="geometry" />
        </mxCell>
        <mxCell id="xk0VU2B57EffYjzDep0H-10" value="" style="endArrow=classic;html=1;exitX=1;exitY=0.5;exitDx=0;exitDy=0;entryX=0;entryY=0.5;entryDx=0;entryDy=0;" edge="1" parent="1" source="xk0VU2B57EffYjzDep0H-3" target="xk0VU2B57EffYjzDep0H-5">
          <mxGeometry width="50" height="50" relative="1" as="geometry">
            <mxPoint x="970" y="150" as="sourcePoint" />
            <mxPoint x="1020" y="100" as="targetPoint" />
          </mxGeometry>
        </mxCell>
        <mxCell id="xk0VU2B57EffYjzDep0H-11" value="" style="endArrow=classic;html=1;exitX=1;exitY=0.5;exitDx=0;exitDy=0;entryX=0;entryY=0.5;entryDx=0;entryDy=0;" edge="1" parent="1" source="xk0VU2B57EffYjzDep0H-4" target="xk0VU2B57EffYjzDep0H-6">
          <mxGeometry width="50" height="50" relative="1" as="geometry">
            <mxPoint x="975" y="110" as="sourcePoint" />
            <mxPoint x="1110" y="145" as="targetPoint" />
          </mxGeometry>
        </mxCell>
        <mxCell id="xk0VU2B57EffYjzDep0H-12" value="" style="endArrow=classic;html=1;entryX=0;entryY=0.5;entryDx=0;entryDy=0;exitX=1;exitY=0.5;exitDx=0;exitDy=0;" edge="1" parent="1" source="xk0VU2B57EffYjzDep0H-4" target="xk0VU2B57EffYjzDep0H-7">
          <mxGeometry width="50" height="50" relative="1" as="geometry">
            <mxPoint x="985" y="120" as="sourcePoint" />
            <mxPoint x="1120" y="155" as="targetPoint" />
          </mxGeometry>
        </mxCell>
        <mxCell id="xk0VU2B57EffYjzDep0H-13" value="" style="endArrow=classic;html=1;exitX=1;exitY=0.5;exitDx=0;exitDy=0;entryX=0;entryY=0.5;entryDx=0;entryDy=0;" edge="1" parent="1" source="xk0VU2B57EffYjzDep0H-4" target="xk0VU2B57EffYjzDep0H-8">
          <mxGeometry width="50" height="50" relative="1" as="geometry">
            <mxPoint x="995" y="130" as="sourcePoint" />
            <mxPoint x="1130" y="165" as="targetPoint" />
          </mxGeometry>
        </mxCell>
        <mxCell id="xk0VU2B57EffYjzDep0H-14" value="" style="endArrow=classic;html=1;exitX=1;exitY=0.5;exitDx=0;exitDy=0;" edge="1" parent="1" source="xk0VU2B57EffYjzDep0H-4">
          <mxGeometry width="50" height="50" relative="1" as="geometry">
            <mxPoint x="965" y="193" as="sourcePoint" />
            <mxPoint x="1068" y="177.2024539877301" as="targetPoint" />
          </mxGeometry>
        </mxCell>
        <mxCell id="xk0VU2B57EffYjzDep0H-15" value="set UserAndTerminal&lt;br&gt;&lt;br&gt;POST/cronQueue&lt;br&gt;oder&lt;br&gt;POST/cronJobs" style="rounded=1;whiteSpace=wrap;html=1;" vertex="1" parent="1">
          <mxGeometry x="590" y="215" width="120" height="105" as="geometry" />
        </mxCell>
        <mxCell id="xk0VU2B57EffYjzDep0H-16" value="" style="endArrow=classic;html=1;entryX=0.5;entryY=0;entryDx=0;entryDy=0;" edge="1" parent="1" target="xk0VU2B57EffYjzDep0H-3">
          <mxGeometry width="50" height="50" relative="1" as="geometry">
            <mxPoint x="710" y="268" as="sourcePoint" />
            <mxPoint x="480" y="430" as="targetPoint" />
          </mxGeometry>
        </mxCell>
        <mxCell id="xk0VU2B57EffYjzDep0H-17" value="" style="endArrow=classic;html=1;entryX=0.5;entryY=0;entryDx=0;entryDy=0;exitX=1;exitY=0.5;exitDx=0;exitDy=0;" edge="1" parent="1" source="xk0VU2B57EffYjzDep0H-15" target="xk0VU2B57EffYjzDep0H-4">
          <mxGeometry width="50" height="50" relative="1" as="geometry">
            <mxPoint x="650" y="320" as="sourcePoint" />
            <mxPoint x="215" y="570" as="targetPoint" />
          </mxGeometry>
        </mxCell>
      </root>
    </mxGraphModel>
  </diagram>
</mxfile>
